:FULLY-SPECIFIED
:FORCE-ALL-JOINTS-BE-3DOF
:DEGREES
272
root 8.22421 15.1754 -25.1446 12.9962 51.7657 17.0487
lfemur -7.07905 13.8674 -13.2575
ltibia 39.8451 0 0
lfoot -22.064 -27.911 0
ltoes 60.8566 0 0
rfemur -45.7292 -17.6929 22.7084
rtibia 50.9998 0 0
rfoot 4.64802 12.1543 0
rtoes 35.8538 0 0
lowerback 5.71392 -3.75248 -7.1081
upperback 3.81763 -5.34379 -5.59285
thorax 1.02864 -2.70577 -1.54262
lowerneck -7.03494 -8.38474 -0.895621
upperneck -0.124341 -11.4709 8.9089
head 2.0365 -5.5621 2.59589
lclavicle 6.44774e-14 -5.49504e-14 0
lhumerus -46.2808 -45.0682 104.052
lradius 59.0505 0 0
lwrist 24.4527 0 0
lhand 24.2971 18.7679 0
lfingers 7.12502 0 0
lthumb 48.3446 39.5939 0
rclavicle 6.44774e-14 -5.49504e-14 0
rhumerus -44.0049 51.3934 -68.8318
rradius 75.7911 0 0
rwrist -1.6408 0 0
rhand -4.95391 -18.431 0
rfingers 7.12502 0 0
rthumb 20.839 -679.911 0
273
root 8.27573 15.1817 -25.1262 13.0686 52.4892 17.1755
lfemur -7.4064 14.0767 -13.4861
ltibia 40.434 0 0
lfoot -21.8082 -28.0569 0
ltoes 60.9256 0 0
rfemur -45.947 -17.6608 23.2318
rtibia 51.1037 0 0
rfoot 5.20839 12.0559 0
rtoes 35.3466 0 0
lowerback 5.86579 -3.76457 -7.19947
upperback 3.87856 -5.36676 -5.5348
thorax 1.0156 -2.71771 -1.42489
lowerneck -6.95808 -8.51739 -1.01011
upperneck -0.186806 -11.6326 8.99094
head 2.01397 -5.64426 2.63638
lclavicle 6.54659e-14 -5.52287e-14 0
lhumerus -46.0683 -44.9309 103.822
lradius 59.1048 0 0
lwrist 24.3731 0 0
lhand 23.9431 18.5057 0
lfingers 7.12502 0 0
lthumb 48.0235 39.5201 0
rclavicle 6.54659e-14 -5.52287e-14 0
rhumerus -44.6894 52.1846 -69.8851
rradius 76.0469 0 0
rwrist -1.21238 0 0
rhand -4.89991 -17.9827 0
rfingers 7.12502 0 0
rthumb 20.8909 -682.943 0
274
root 8.32627 15.188 -25.1067 13.139 53.1948 17.2987
lfemur -7.7323 14.2825 -13.7116
ltibia 41.0162 0 0
lfoot -21.5542 -28.1965 0
ltoes 60.9874 0 0
rfemur -46.1612 -17.6297 23.7492
rtibia 51.2098 0 0
rfoot 5.76225 11.9568 0
rtoes 34.8456 0 0
lowerback 6.01573 -3.77563 -7.28902
upperback 3.93848 -5.38824 -5.47702
thorax 1.00248 -2.7289 -1.3086
lowerneck -6.88209 -8.64739 -1.12241
upperneck -0.248128 -11.791 9.07114
head 1.99174 -5.72475 2.67603
lclavicle 6.64314e-14 -5.5498e-14 0
lhumerus -45.8583 -44.7922 103.594
lradius 59.1577 0 0
lwrist 24.2939 0 0
lhand 23.589 18.2451 0
lfingers 7.12502 0 0
lthumb 47.7022 39.4465 0
rclavicle 6.64314e-14 -5.5498e-14 0
rhumerus -45.3658 52.9618 -70.9283
rradius 76.2981 0 0
rwrist -0.788134 0 0
rhand -4.84798 -17.5397 0
rfingers 7.12502 0 0
rthumb 20.9408 -685.942 0
275
root 8.3758 15.1944 -25.086 13.2075 53.8818 17.4182
lfemur -8.05654 14.4846 -13.9337
ltibia 41.5912 0 0
lfoot -21.3021 -28.3297 0
ltoes 61.0417 0 0
rfemur -46.3715 -17.5997 24.2602
rtibia 51.3182 0 0
rfoot 6.30919 11.8571 0
rtoes 34.3514 0 0
lowerback 6.16364 -3.78564 -7.37667
upperback 3.99738 -5.4082 -5.41956
thorax 0.989309 -2.73932 -1.19385
lowerneck -6.80703 -8.77464 -1.23242
upperneck -0.30825 -11.9459 9.14944
head 1.96983 -5.80351 2.7148
lclavicle 6.73727e-14 -5.57578e-14 0
lhumerus -45.6508 -44.6522 103.368
lradius 59.2091 0 0
lwrist 24.2152 0 0
lhand 23.235 17.9861 0
lfingers 7.12502 0 0
lthumb 47.3807 39.3732 0
rclavicle 6.73727e-14 -5.57578e-14 0
rhumerus -46.0336 53.7244 -71.9605
rradius 76.5446 0 0
rwrist -0.368336 0 0
rhand -4.79819 -17.1022 0
rfingers 7.12502 0 0
rthumb 20.9887 -688.907 0
276
root 8.42426 15.2009 -25.0641 13.2738 54.5495 17.5338
lfemur -8.37893 14.6828 -14.1524
ltibia 42.1588 0 0
lfoot -21.0521 -28.4563 0
ltoes 61.0885 0 0
rfemur -46.5779 -17.5708 24.7646
rtibia 51.4288 0 0
rfoot 6.84881 11.7568 0
rtoes 33.8643 0 0
lowerback 6.30943 -3.79456 -7.46235
upperback 4.05519 -5.4266 -5.36246
thorax 0.97608 -2.74895 -1.08073
lowerneck -6.73294 -8.89902 -1.34005
upperneck -0.367116 -12.0973 9.22578
head 1.94826 -5.88047 2.75265
lclavicle 6.82891e-14 -5.6008e-14 0
lhumerus -45.4461 -44.5111 103.143
lradius 59.2589 0 0
lwrist 24.137 0 0
lhand 22.8811 17.7291 0
lfingers 7.12502 0 0
lthumb 47.0592 39.3002 0
rclavicle 6.82891e-14 -5.6008e-14 0
rhumerus -46.6924 54.4719 -72.9812
rradius 76.7862 0 0
rwrist 0.0467449 0 0
rhand -4.75058 -16.6707 0
rfingers 7.12502 0 0
rthumb 21.0344 -691.839 0
277
root 8.47161 15.2073 -25.041 13.3379 55.1972 17.6454
lfemur -8.69927 14.8772 -14.3675
ltibia 42.7183 0 0
lfoot -20.8042 -28.5761 0
ltoes 61.1276 0 0
rfemur -46.7802 -17.5431 25.262
rtibia 51.5417 0 0
rfoot 7.38069 11.6558 0
rtoes 33.3848 0 0
lowerback 6.45298 -3.80239 -7.54599
upperback 4.11189 -5.4434 -5.30577
thorax 0.962804 -2.75778 -0.96933
lowerneck -6.65986 -9.02041 -1.4452
upperneck -0.424667 -12.2449 9.30009
head 1.92704 -5.95554 2.78956
lclavicle 6.91795e-14 -5.62483e-14 0
lhumerus -45.2444 -44.3688 102.921
lradius 59.3072 0 0
lwrist 24.0594 0 0
lhand 22.5277 17.4741 0
lfingers 7.12502 0 0
lthumb 46.7379 39.2277 0
rclavicle 6.91795e-14 -5.62483e-14 0
rhumerus -47.3418 55.2037 -73.9896
rradius 77.0226 0 0
rwrist 0.456838 0 0
rhand -4.70521 -16.2455 0
rfingers 7.12502 0 0
rthumb 21.078 -694.736 0
278
root 8.5178 15.2138 -25.0167 13.3999 55.8242 17.753
lfemur -9.01735 15.0674 -14.5787
ltibia 43.2696 0 0
lfoot -20.5587 -28.6889 0
ltoes 61.1588 0 0
rfemur -46.9781 -17.5166 25.752
rtibia 51.6568 0 0
rfoot 7.90444 11.5542 0
rtoes 32.9134 0 0
lowerback 6.59421 -3.80909 -7.62752
upperback 4.16743 -5.45858 -5.24952
thorax 0.94949 -2.76578 -0.859733
lowerneck -6.58784 -9.13868 -1.54778
upperneck -0.480847 -12.3887 9.3723
head 1.90619 -6.02866 2.82548
lclavicle 7.00432e-14 -5.64785e-14 0
lhumerus -45.0456 -44.2255 102.701
lradius 59.3538 0 0
lwrist 23.9825 0 0
lhand 22.1747 17.2213 0
lfingers 7.12502 0 0
lthumb 46.4169 39.1555 0
rclavicle 7.00432e-14 -5.64785e-14 0
rhumerus -47.9811 55.9191 -74.985
rradius 77.2538 0 0
rwrist 0.861673 0 0
rhand -4.66215 -15.8268 0
rfingers 7.12502 0 0
rthumb 21.1194 -697.597 0
279
root 8.5628 15.2204 -24.991 13.4595 56.4299 17.8564
lfemur -9.33298 15.2534 -14.786
ltibia 43.8121 0 0
lfoot -20.3157 -28.7944 0
ltoes 61.1821 0 0
rfemur -47.1717 -17.4914 26.2344
rtibia 51.7742 0 0
rfoot 8.41965 11.4519 0
rtoes 32.4505 0 0
lowerback 6.73301 -3.81465 -7.70688
upperback 4.22178 -5.47209 -5.19376
thorax 0.936147 -2.77294 -0.752031
lowerneck -6.51692 -9.25374 -1.64767
upperneck -0.5356 -12.5284 9.44234
head 1.88573 -6.09976 2.86039
lclavicle 7.08792e-14 -5.66982e-14 0
lhumerus -44.8501 -44.0812 102.483
lradius 59.3987 0 0
lwrist 23.9063 0 0
lhand 21.8225 16.9708 0
lfingers 7.12502 0 0
lthumb 46.0963 39.0839 0
rclavicle 7.08792e-14 -5.66982e-14 0
rhumerus -48.6101 56.6176 -75.9669
rradius 77.4796 0 0
rwrist 1.26098 0 0
rhand -4.62143 -15.4151 0
rfingers 7.12502 0 0
rthumb 21.1586 -700.422 0
280
root 8.60654 15.2269 -24.9641 13.5168 57.0134 17.9555
lfemur -9.64596 15.435 -14.9891
ltibia 44.3455 0 0
lfoot -20.0753 -28.8926 0
ltoes 61.1972 0 0
rfemur -47.3606 -17.4676 26.7089
rtibia 51.8938 0 0
rfoot 8.92592 11.349 0
rtoes 31.9966 0 0
lowerback 6.86929 -3.81904 -7.78398
upperback 4.27489 -5.4839 -5.13854
thorax 0.922782 -2.77923 -0.646315
lowerneck -6.44716 -9.36545 -1.74479
upperneck -0.588867 -12.664 9.51016
head 1.86568 -6.16875 2.89426
lclavicle 7.16865e-14 -5.69073e-14 0
lhumerus -44.6579 -43.9361 102.268
lradius 59.442 0 0
lwrist 23.8309 0 0
lhand 21.4711 16.7228 0
lfingers 7.12502 0 0
lthumb 45.7763 39.0127 0
rclavicle 7.16865e-14 -5.69073e-14 0
rhumerus -49.2281 57.2987 -76.9345
rradius 77.6997 0 0
rwrist 1.65449 0 0
rhand -4.58312 -15.0105 0
rfingers 7.12502 0 0
rthumb 21.1954 -703.21 0
281
root 8.649 15.2335 -24.9358 13.5716 57.5741 18.0502
lfemur -9.9561 15.6122 -15.1879
ltibia 44.8693 0 0
lfoot -19.8377 -28.9833 0
ltoes 61.204 0 0
rfemur -47.5449 -17.4452 27.1749
rtibia 52.0155 0 0
rfoot 9.42283 11.2454 0
rtoes 31.5521 0 0
lowerback 7.00295 -3.82224 -7.85877
upperback 4.32673 -5.49398 -5.0839
thorax 0.909404 -2.78465 -0.542674
lowerneck -6.3786 -9.4737 -1.83905
upperneck -0.640592 -12.7952 9.57568
head 1.84606 -6.23557 2.92704
lclavicle 7.24643e-14 -5.71054e-14 0
lhumerus -44.4692 -43.7903 102.056
lradius 59.4835 0 0
lwrist 23.7563 0 0
lhand 21.1206 16.4775 0
lfingers 7.12502 0 0
lthumb 45.4569 38.9421 0
rclavicle 7.24643e-14 -5.71054e-14 0
rhumerus -49.8347 57.9616 -77.8872
rradius 77.914 0 0
rwrist 2.04193 0 0
rhand -4.54727 -14.6135 0
rfingers 7.12502 0 0
rthumb 21.2298 -705.961 0
282
root 8.69012 15.2401 -24.9061 13.624 58.1114 18.1404
lfemur -10.2632 15.7847 -15.3822
ltibia 45.3832 0 0
lfoot -19.6031 -29.0662 0
ltoes 61.2024 0 0
rfemur -47.7242 -17.4242 27.6324
rtibia 52.1395 0 0
rfoot 9.90997 11.1412 0
rtoes 31.1175 0 0
lowerback 7.13388 -3.82422 -7.93117
upperback 4.37724 -5.50229 -5.02987
thorax 0.896021 -2.78918 -0.441197
lowerneck -6.31128 -9.57837 -1.93033
upperneck -0.690719 -12.922 9.63883
head 1.82688 -6.30014 2.95871
lclavicle 7.32117e-14 -5.72924e-14 0
lhumerus -44.2841 -43.6437 101.847
lradius 59.5232 0 0
lwrist 23.6826 0 0
lhand 20.7714 16.2351 0
lfingers 7.12502 0 0
lthumb 45.1384 38.872 0
rclavicle 7.32117e-14 -5.72924e-14 0
rhumerus -50.4294 58.6059 -78.8242
rradius 78.1223 0 0
rwrist 2.42303 0 0
rhand -4.51394 -14.2244 0
rfingers 7.12502 0 0
rthumb 21.2618 -708.673 0
